<svg xmlns="http://www.w3.org/2000/svg" viewBox="0 0 256 256" width="256" height="256">
  <defs>
    <linearGradient id="foxGradIcon" x1="0%" y1="0%" x2="100%" y2="100%">
      <stop offset="0%" style="stop-color:#f97316"/>
      <stop offset="50%" style="stop-color:#ea580c"/>
      <stop offset="100%" style="stop-color:#dc2626"/>
    </linearGradient>
    <filter id="shadow">
      <feDropShadow dx="0" dy="4" stdDeviation="8" flood-color="#000" flood-opacity="0.3"/>
    </filter>
  </defs>
  <rect width="256" height="256" rx="48" fill="#0d1117"/>
  <g transform="translate(128,128) scale(2.8)" filter="url(#shadow)">
    <path d="M0 -35C-15 -35 -25 -25 -30 -15c5-2.5 10-3.75 15-2.5 -2.5 5-3.75 11.25-2.5 17.5 -5-1.25-10 0-12.5 5 3.75 3.75 10 5 15 3.75 1.25 5 5 8.75 10 11.25 5-2.5 8.75-6.25 10-11.25 5 1.25 11.25 0 15-3.75 -2.5-5-7.5-6.25-12.5-5 1.25-6.25 0-12.5-2.5-17.5 5-1.25 10 0 15 2.5C25 -25 15 -35 0 -35z" fill="url(#foxGradIcon)"/>
    <circle cx="-10" cy="-10" r="3" fill="#1e293b"/>
    <circle cx="10" cy="-10" r="3" fill="#1e293b"/>
    <circle cx="-9" cy="-11" r="1" fill="#fff"/>
    <circle cx="11" cy="-11" r="1" fill="#fff"/>
    <path d="M-7 5 Q0 12 7 5" fill="none" stroke="#1e293b" stroke-width="2" stroke-linecap="round"/>
    <path d="M-30 -15 L-37.5 -25" stroke="url(#foxGradIcon)" stroke-width="3.5" stroke-linecap="round"/>
    <path d="M30 -15 L37.5 -25" stroke="url(#foxGradIcon)" stroke-width="3.5" stroke-linecap="round"/>
  </g>
</svg>
